<svg class="svg-icon" style="width: 1em;height: 1em;vertical-align: middle;fill: currentColor;overflow: hidden;" viewBox="0 0 1024 1024" version="1.1" xmlns="http://www.w3.org/2000/svg"><path d="M840.557116 544.982149v0.578001c0 57.005292-14.739011 110.614831-40.60453 157.071615a323.615212 323.615212 0 0 1-101.728075 110.976081 322.235236 322.235236 0 0 1-181.130882 55.41579c-75.790306 0-145.511607-26.010019-200.638397-69.721301a321.15871 321.15871 0 0 1-69.649051-75.934805c-32.801524-49.635786-52.164538-108.80858-53.176039-172.460877-0.07225-1.806251-0.07225-3.540253-0.07225-5.346503 0-2.817752 0-5.635504 0.07225-8.453257 1.083751-40.31553 9.464757-78.824808 23.987017-114.155083a320.067734 320.067734 0 0 1 53.176039-87.061314c10.620758-12.499259 22.253016-24.203768 34.680026-34.969026a368.47527 368.47527 0 0 1 10.115007-8.453256 322.791561 322.791561 0 0 1 184.815636-69.938051c0.4335-0.07225 0.794751-0.07225 1.22825-0.07225l6.141255-0.21675h2.023001c2.456502-0.07225 4.840754-0.1445 7.297256-0.1445 1.445001 0 2.890002 0 4.335003 0.07225 0.36125 0 0.794751 0 1.156001 0.07225 76.007056 1.156001 145.583857 28.611021 200.204896 73.911804 1.878501 1.445001 3.757003 3.034502 5.635505 4.624003a323.896987 323.896987 0 0 1 40.604529 42.049531c21.602766 26.73252 38.942779 56.933042 51.153038 89.590066 9.609257 25.504269 15.967262 52.598039 18.785013 80.775559 1.011501 10.404008 1.589501 21.024765 1.589502 31.790023z" fill="#D0A392" /><path d="M840.557116 544.982149v0.578001c0 57.005292-14.739011 110.614831-40.60453 157.071615a323.615212 323.615212 0 0 1-101.728075 110.976081c-49.997037 10.837508-105.412827 16.834262-163.86312 16.834262-80.414309 0-155.265364-11.415508-217.906159-31.139773a321.15871 321.15871 0 0 1-69.649051-75.934805c-32.801524-49.635786-52.164538-108.80858-53.176039-172.460877 7.369505 3.540253 14.16101 8.164256 18.857264 11.198759 109.74783 70.949552 281.775206 55.488041 355.39801 48.841035 62.424046-5.635504 110.903831-9.970507 163.140619-32.295773 35.113526-14.955761 74.128554-19.796514 109.531081-33.668525z" fill="#D08A80" /><path d="M840.557116 544.982149v0.578001c0 57.005292-14.739011 110.614831-40.60453 157.071615-124.992592 51.586538-243.699428 47.468285-243.699429 47.468284-143.922105-4.985254-244.349679-8.453256-309.446976-26.732519-32.801524-49.635786-52.164538-108.80858-53.176039-172.460877 7.369505 3.540253 14.16101 8.164256 18.857264 11.198759 109.74783 70.949552 281.775206 55.488041 355.39801 48.841035 62.424046-5.635504 110.903831-9.970507 163.140619-32.295773 35.113526-14.955761 74.128554-19.796514 109.531081-33.668525z" fill="#D0827C" /><path d="M621.994678 667.548516a36.847527 73.333804 83.2 1 0 145.635875-17.366026 36.847527 73.333804 83.2 1 0-145.635875 17.366026Z" fill="#CC6D7B" /><path d="M650.61966 664.135194a22.397516 44.506033 83.2 1 0 88.38591-10.539382 22.397516 44.506033 83.2 1 0-88.38591 10.539382Z" fill="#AA5A66" /><path d="M820.182601 432.416567c-56.716292 44.650533-167.909123 74.995555-295.791717 74.995555-136.6971 0-254.320186-34.680025-306.773725-84.460312a320.067734 320.067734 0 0 1 53.176039-87.061314c10.620758-12.499259 22.253016-24.203768 34.680026-34.969026a368.47527 368.47527 0 0 1 10.115007-8.453256 322.791561 322.791561 0 0 1 184.815636-69.938051c0.4335-0.07225 0.794751-0.07225 1.22825-0.07225l8.164256-0.21675c2.384252-0.07225 4.768503-0.07225 7.152756-0.07225h4.479503c0.36125 0 0.794751 0 1.156001 0.07225 76.007056 1.156001 145.583857 28.611021 200.204896 73.911804 1.878501 1.445001 3.757003 3.034502 5.635505 4.624003a323.896987 323.896987 0 0 1 40.604529 42.049531c21.602766 26.73252 38.942779 56.933042 51.153038 89.590066z" fill="#D0827C" /><path d="M769.029563 342.826501c-49.491286 37.570028-140.598603 62.713046-244.855429 62.713046-110.542581 0-206.273901-28.249771-253.380936-69.649051 10.620758-12.499259 22.253016-24.203768 34.680026-34.969026a368.47527 368.47527 0 0 1 10.115007-8.453256 322.791561 322.791561 0 0 1 184.815636-69.938051c0.4335-0.07225 0.794751-0.07225 1.22825-0.07225l6.141255-0.21675h2.023001c2.456502-0.07225 4.840754-0.1445 7.297256-0.1445 1.445001 0 2.890002 0 4.335003 0.07225 0.36125 0 0.794751 0 1.156001 0.07225 76.007056 1.156001 145.583857 28.611021 200.204896 73.911804 1.878501 1.445001 3.757003 3.034502 5.635505 4.624003a323.896987 323.896987 0 0 1 40.604529 42.049531z" fill="#D0A392" /><path d="M728.425034 300.77697c-19.652014 30.056022-106.930078 52.742539-211.475905 52.742539-104.473577 0-191.60714-22.614267-211.475905-52.598039a368.47527 368.47527 0 0 1 10.115007-8.453256 322.791561 322.791561 0 0 1 184.815636-69.938051c0.4335-0.07225 0.794751-0.07225 1.22825-0.07225l6.141255-0.21675h2.023001c2.384252-0.07225 4.768503-0.07225 7.152756-0.07225h4.479503c0.36125 0 0.794751 0 1.156001 0.07225 76.007056 1.156001 145.583857 28.611021 200.204896 73.911804 1.878501 1.445001 3.757003 3.034502 5.635505 4.624003z" fill="#D0827C" /><path d="M722.789529 296.152967c-39.231779 24.709518-114.444084 41.47153-200.855147 41.47153-90.601566 0-168.920624-18.423763-206.346151-45.156283a322.791561 322.791561 0 0 1 184.815636-69.938051c0.4335-0.07225 0.794751-0.07225 1.22825-0.07225l6.141255-0.21675h2.023001c2.456502-0.07225 4.840754-0.1445 7.297256-0.1445 1.445001 0 2.890002 0 4.335003 0.07225 0.36125 0 0.794751 0 1.156001 0.07225 76.007056 1.156001 145.583857 28.611021 200.204896 73.911804z" fill="#D0A392" /></svg>